<svg width="105" height="31" viewBox="0 0 105 31" fill="none" xmlns="http://www.w3.org/2000/svg">
<path fill-rule="evenodd" clip-rule="evenodd" d="M26.2683 15.6678C26.2683 21.7821 21.3117 26.7387 15.1974 26.7387C9.08312 26.7387 4.12651 21.7821 4.12651 15.6678C4.12651 9.55356 9.08312 4.59695 15.1974 4.59695C21.3117 4.59695 26.2683 9.55356 26.2683 15.6678ZM18.4022 24.6414C17.4007 24.9991 16.3218 25.194 15.1973 25.194C14.2338 25.194 13.3036 25.0509 12.427 24.7849L15.1973 17.985L18.4022 24.6414ZM18.7284 24.5181L24.1079 12.2919C24.5057 13.3412 24.7234 14.4791 24.7234 15.6678C24.7234 19.6814 22.2414 23.1152 18.7284 24.5181ZM22.6912 9.78598L18.5443 19.7873L16.4846 15.4104L19.7748 7.31155C20.9066 7.93287 21.8985 8.77744 22.6912 9.78598ZM17.8631 6.51974L15.1973 12.5783L12.1153 6.65134C13.082 6.32099 14.1187 6.14173 15.1973 6.14173C16.1226 6.14173 17.0172 6.27366 17.8631 6.51974ZM10.2309 7.53721C9.1595 8.19303 8.22778 9.05468 7.49071 10.0671L12.1078 19.7873L14.1675 15.4104L10.2309 7.53721ZM6.1845 12.575L12.2639 24.7338C8.43812 23.4968 5.6712 19.9054 5.6712 15.6678C5.6712 14.5852 5.85179 13.5448 6.1845 12.575Z" fill="#424242"/>
<path d="M37.4937 19.1678L34.6204 11.9589H36.2579L37.7614 15.862C37.8438 16.0749 37.9125 16.2637 37.9674 16.4284C38.0292 16.5864 38.0807 16.7374 38.1219 16.8816C38.1699 17.0189 38.2146 17.1562 38.2558 17.2935C38.297 17.424 38.3382 17.5681 38.3793 17.7261L38.0807 17.7364C38.1356 17.5235 38.1905 17.3278 38.2455 17.1493C38.3004 16.964 38.3622 16.7717 38.4308 16.5726C38.4995 16.3735 38.5853 16.1367 38.6883 15.862L40.1095 11.9589H41.7367L38.8428 19.1678H37.4937ZM44.5 19.2708C43.9438 19.2708 43.4461 19.1507 43.0067 18.9104C42.5741 18.6632 42.2309 18.3268 41.9768 17.9011C41.7297 17.4755 41.6061 16.988 41.6061 16.4387C41.6061 15.8895 41.7297 15.4055 41.9768 14.9867C42.2309 14.561 42.5741 14.2246 43.0067 13.9774C43.4461 13.7302 43.9438 13.6067 44.5 13.6067C45.0492 13.6067 45.5401 13.7302 45.9726 13.9774C46.4121 14.2246 46.7553 14.561 47.0025 14.9867C47.2497 15.4055 47.3732 15.8895 47.3732 16.4387C47.3732 16.988 47.2497 17.4755 47.0025 17.9011C46.7553 18.3268 46.4121 18.6632 45.9726 18.9104C45.5401 19.1507 45.0492 19.2708 44.5 19.2708ZM44.5 17.9938C44.7677 17.9938 45.008 17.9286 45.2209 17.7981C45.4337 17.6608 45.5985 17.4755 45.7152 17.242C45.8388 17.0017 45.9006 16.734 45.9006 16.4387C45.9006 16.1367 45.8388 15.8689 45.7152 15.6355C45.5985 15.3952 45.4337 15.2098 45.2209 15.0793C45.008 14.942 44.7677 14.8734 44.5 14.8734C44.2253 14.8734 43.9816 14.942 43.7688 15.0793C43.5559 15.2167 43.3877 15.402 43.2641 15.6355C43.1406 15.8689 43.0822 16.1367 43.0891 16.4387C43.0822 16.734 43.1406 17.0017 43.2641 17.242C43.3877 17.4755 43.5559 17.6608 43.7688 17.7981C43.9816 17.9286 44.2253 17.9938 44.5 17.9938ZM48.4838 19.1678V11.547H49.9462V19.1678H48.4838ZM52.8206 17.5304L52.3881 16.3255L54.9627 13.7199H56.8885L52.8206 17.5304ZM51.4303 19.1678V11.547H52.8927V19.1678H51.4303ZM55.1172 19.1678L53.1604 16.7065L54.1903 15.8826L56.8782 19.1678H55.1172ZM59.4687 19.2708C58.9606 19.2708 58.5075 19.1884 58.1093 19.0237C57.7179 18.852 57.4021 18.6186 57.1618 18.3234L58.0681 17.5407C58.2809 17.7672 58.5178 17.932 58.7787 18.035C59.0396 18.1311 59.3005 18.1792 59.5614 18.1792C59.6644 18.1792 59.757 18.1689 59.8394 18.1483C59.9287 18.1208 60.0042 18.0865 60.066 18.0453C60.1278 17.9972 60.1724 17.9423 60.1999 17.8805C60.2342 17.8119 60.2514 17.7398 60.2514 17.6643C60.2514 17.5132 60.1896 17.3931 60.066 17.3038C59.9973 17.2695 59.8909 17.2283 59.7467 17.1802C59.6026 17.1253 59.4172 17.067 59.1906 17.0052C58.8405 16.9159 58.5418 16.8129 58.2947 16.6962C58.0544 16.5726 57.8621 16.4353 57.7179 16.2843C57.5944 16.1401 57.4982 15.9856 57.4296 15.8208C57.3678 15.6492 57.3369 15.4604 57.3369 15.2544C57.3369 15.0072 57.3918 14.7841 57.5017 14.585C57.6115 14.379 57.7626 14.204 57.9548 14.0598C58.1539 13.9156 58.3805 13.8058 58.6345 13.7302C58.8885 13.6478 59.1563 13.6067 59.4378 13.6067C59.7193 13.6067 59.9939 13.641 60.2617 13.7096C60.5294 13.7783 60.7766 13.8778 61.0032 14.0083C61.2366 14.1319 61.4391 14.2795 61.6108 14.4511L60.8281 15.3162C60.7045 15.1995 60.5638 15.0931 60.4058 14.997C60.2548 14.9008 60.0969 14.8253 59.9321 14.7704C59.7673 14.7155 59.6197 14.688 59.4893 14.688C59.3726 14.688 59.2661 14.6983 59.17 14.7189C59.0808 14.7395 59.0052 14.7704 58.9435 14.8116C58.8817 14.8528 58.8336 14.9077 58.7993 14.9764C58.7718 15.0381 58.7581 15.1068 58.7581 15.1823C58.7581 15.2578 58.7752 15.3299 58.8096 15.3986C58.8508 15.4672 58.9057 15.5256 58.9744 15.5737C59.0499 15.6149 59.1597 15.6629 59.3039 15.7178C59.455 15.7728 59.6575 15.8346 59.9115 15.9032C60.2411 15.9925 60.5191 16.092 60.7457 16.2019C60.9791 16.3117 61.1645 16.4387 61.3018 16.5829C61.4185 16.7065 61.5044 16.8472 61.5593 17.0052C61.6142 17.1631 61.6417 17.3381 61.6417 17.5304C61.6417 17.8668 61.5455 18.1689 61.3533 18.4367C61.1679 18.6975 60.9105 18.9035 60.5809 19.0546C60.2514 19.1987 59.8806 19.2708 59.4687 19.2708ZM63.9303 19.1678L62.1075 13.7199H63.6317L64.7439 17.4274L64.5174 17.3965L65.7429 14.5026H66.608L67.885 17.4068L67.6378 17.4274L68.7501 13.7199H70.2742L68.4205 19.1678H67.3598L66.0724 16.068L66.2372 16.0886L64.9808 19.1678H63.9303ZM73.0506 19.2708C72.5975 19.2708 72.189 19.1472 71.8251 18.9001C71.4612 18.6529 71.1729 18.3165 70.96 17.8908C70.7472 17.4652 70.6408 16.9777 70.6408 16.4284C70.6408 15.8792 70.7472 15.3952 70.96 14.9764C71.1797 14.5507 71.475 14.2177 71.8457 13.9774C72.2165 13.7302 72.6387 13.6067 73.1124 13.6067C73.3802 13.6067 73.6239 13.6478 73.8436 13.7302C74.0702 13.8058 74.2659 13.9122 74.4306 14.0495C74.6023 14.1868 74.7465 14.3447 74.8632 14.5232C74.9799 14.7017 75.0623 14.894 75.1103 15.0999L74.8014 15.0484V13.7199H76.2535V19.1678H74.7808V17.8599L75.1103 17.829C75.0554 18.0213 74.9662 18.2032 74.8426 18.3749C74.719 18.5465 74.5645 18.701 74.3792 18.8383C74.2006 18.9687 73.9981 19.0752 73.7715 19.1575C73.545 19.2331 73.3047 19.2708 73.0506 19.2708ZM73.4523 18.0041C73.7269 18.0041 73.9672 17.9389 74.1732 17.8084C74.3792 17.678 74.5371 17.4961 74.6469 17.2626C74.7636 17.0223 74.822 16.7443 74.822 16.4284C74.822 16.1195 74.7636 15.8483 74.6469 15.6149C74.5371 15.3814 74.3792 15.1995 74.1732 15.069C73.9672 14.9317 73.7269 14.8631 73.4523 14.8631C73.1845 14.8631 72.9477 14.9317 72.7417 15.069C72.5426 15.1995 72.3847 15.3814 72.268 15.6149C72.1512 15.8483 72.0929 16.1195 72.0929 16.4284C72.0929 16.7443 72.1512 17.0223 72.268 17.2626C72.3847 17.4961 72.5426 17.678 72.7417 17.8084C72.9477 17.9389 73.1845 18.0041 73.4523 18.0041ZM80.2016 21.5365C79.7691 21.5365 79.3434 21.4713 78.9246 21.3408C78.5058 21.2172 78.1659 21.0559 77.905 20.8568L78.4199 19.8064C78.5573 19.9025 78.7152 19.9883 78.8937 20.0638C79.0722 20.1393 79.2576 20.1977 79.4498 20.2389C79.6489 20.2801 79.8514 20.3007 80.0574 20.3007C80.4144 20.3007 80.7062 20.2458 80.9328 20.1359C81.1662 20.0261 81.3413 19.8613 81.458 19.6416C81.5747 19.4287 81.6331 19.1541 81.6331 18.8177V17.8702L81.8802 17.9217C81.8391 18.1483 81.7258 18.3577 81.5404 18.5499C81.355 18.7353 81.1216 18.8864 80.8401 19.0031C80.5586 19.1129 80.2702 19.1678 79.975 19.1678C79.467 19.1678 79.0173 19.0511 78.6259 18.8177C78.2346 18.5843 77.9256 18.2616 77.6991 17.8496C77.4725 17.4377 77.3592 16.964 77.3592 16.4284C77.3592 15.8792 77.469 15.3952 77.6888 14.9764C77.9153 14.5507 78.2208 14.2177 78.6053 13.9774C78.9967 13.7302 79.4395 13.6067 79.9338 13.6067C80.1398 13.6067 80.3355 13.6307 80.5208 13.6787C80.7131 13.7268 80.8882 13.7955 81.0461 13.8847C81.2108 13.9671 81.355 14.0632 81.4786 14.1731C81.6091 14.2761 81.7155 14.3893 81.7979 14.5129C81.8802 14.6365 81.9317 14.7601 81.9523 14.8837L81.6537 14.9661L81.6949 13.7199H83.0955V18.7559C83.0955 19.2022 83.0302 19.597 82.8998 19.9402C82.7693 20.2835 82.5771 20.5719 82.3231 20.8053C82.0759 21.0456 81.7704 21.2275 81.4065 21.3511C81.0495 21.4747 80.6479 21.5365 80.2016 21.5365ZM80.2428 17.9938C80.5311 17.9938 80.7817 17.9286 80.9946 17.7981C81.2143 17.6677 81.3825 17.4858 81.4992 17.2523C81.6159 17.0189 81.6743 16.7443 81.6743 16.4284C81.6743 16.1195 81.6159 15.8483 81.4992 15.6149C81.3825 15.3746 81.2143 15.1892 80.9946 15.0587C80.7817 14.9283 80.5311 14.8631 80.2428 14.8631C79.9613 14.8631 79.7107 14.9317 79.491 15.069C79.2782 15.1995 79.1134 15.3814 78.9967 15.6149C78.8799 15.8483 78.8216 16.1195 78.8216 16.4284C78.8216 16.7374 78.8799 17.012 78.9967 17.2523C79.1134 17.4858 79.2782 17.6677 79.491 17.7981C79.7107 17.9286 79.9613 17.9938 80.2428 17.9938ZM87.1334 19.2708C86.5429 19.2708 86.028 19.1507 85.5886 18.9104C85.1492 18.6701 84.8059 18.3405 84.5587 17.9217C84.3116 17.5029 84.188 17.0223 84.188 16.4799C84.188 16.0611 84.2567 15.6767 84.394 15.3265C84.5313 14.9764 84.7235 14.6743 84.9707 14.4202C85.2178 14.1593 85.5096 13.9602 85.8461 13.8229C86.1893 13.6787 86.5601 13.6067 86.9583 13.6067C87.329 13.6067 87.6723 13.6753 87.9881 13.8126C88.304 13.9431 88.5752 14.1319 88.8017 14.379C89.0352 14.6193 89.2137 14.9043 89.3372 15.2338C89.4608 15.5634 89.5158 15.9238 89.502 16.3152L89.4917 16.7683H85.1149L84.878 15.8723H88.2868L88.122 16.0577V15.8311C88.1083 15.6458 88.0465 15.4775 87.9367 15.3265C87.8337 15.1755 87.6998 15.0587 87.535 14.9764C87.3702 14.894 87.1849 14.8528 86.9789 14.8528C86.6768 14.8528 86.4193 14.9111 86.2065 15.0278C86.0005 15.1446 85.8426 15.3162 85.7328 15.5428C85.6229 15.7693 85.568 16.044 85.568 16.3667C85.568 16.6962 85.6367 16.9811 85.774 17.2214C85.9181 17.4617 86.1172 17.6505 86.3713 17.7878C86.6322 17.9183 86.9377 17.9835 87.2878 17.9835C87.5281 17.9835 87.7478 17.9458 87.947 17.8702C88.1461 17.7947 88.3589 17.6643 88.5855 17.4789L89.2858 18.4572C89.0867 18.6358 88.867 18.7868 88.6267 18.9104C88.3864 19.0271 88.1392 19.1164 87.8852 19.1781C87.6311 19.2399 87.3805 19.2708 87.1334 19.2708ZM90.5827 19.1678V13.7199H91.9833L92.0245 14.8322L91.7362 14.9558C91.8117 14.7086 91.9456 14.4855 92.1378 14.2864C92.3369 14.0804 92.5738 13.9156 92.8484 13.792C93.123 13.6684 93.4114 13.6067 93.7135 13.6067C94.1254 13.6067 94.4687 13.689 94.7433 13.8538C95.0248 14.0186 95.2342 14.2692 95.3715 14.6056C95.5157 14.9352 95.5878 15.3437 95.5878 15.8311V19.1678H94.1254V15.9444C94.1254 15.6972 94.0911 15.4913 94.0224 15.3265C93.9538 15.1617 93.8474 15.0416 93.7032 14.9661C93.5659 14.8837 93.3942 14.8493 93.1882 14.8631C93.0235 14.8631 92.869 14.8905 92.7248 14.9455C92.5875 14.9935 92.4674 15.0656 92.3644 15.1617C92.2682 15.2578 92.1893 15.3677 92.1275 15.4913C92.0726 15.6149 92.0451 15.7487 92.0451 15.8929V19.1678H91.3242C91.1663 19.1678 91.0256 19.1678 90.902 19.1678C90.7784 19.1678 90.672 19.1678 90.5827 19.1678Z" fill="#424242"/>
</svg>
