<svg width="152" height="58" viewBox="0 0 152 58" fill="none" xmlns="http://www.w3.org/2000/svg">
<path d="M0 41.3862H61.7388C62.5502 41.3862 63.2079 42.044 63.2079 42.8554C63.2079 43.6942 62.5068 44.3627 61.6689 44.3228L0 41.3862Z" fill="#084FF4"/>
<rect x="13.5569" y="28.8826" width="38.2745" height="38.2745" transform="rotate(-45 13.5569 28.8826)" fill="#084FF4"/>
<path d="M39.4604 30.1403H36.871L36.8571 28.714H39.0311C39.4142 28.714 39.7281 28.6656 39.9727 28.5686C40.2174 28.4671 40.3997 28.3217 40.5197 28.1325C40.6443 27.9386 40.7066 27.7032 40.7066 27.4262C40.7066 27.1124 40.6466 26.8585 40.5266 26.6647C40.4112 26.4708 40.2289 26.33 39.9797 26.2423C39.735 26.1546 39.4189 26.1108 39.0311 26.1108H37.591V34.5645H35.514V24.4837H39.0311C39.6173 24.4837 40.1412 24.5391 40.6028 24.6499C41.069 24.7607 41.4636 24.9291 41.7867 25.1553C42.1098 25.3815 42.3568 25.6677 42.5275 26.0138C42.6983 26.3554 42.7837 26.7616 42.7837 27.2324C42.7837 27.6478 42.6891 28.0309 42.4998 28.3817C42.3152 28.7325 42.0221 29.0187 41.6206 29.2402C41.2236 29.4618 40.7043 29.5841 40.0627 29.6072L39.4604 30.1403ZM39.3704 34.5645H36.3032L37.1133 32.9443H39.3704C39.735 32.9443 40.0327 32.8866 40.2635 32.7712C40.4943 32.6512 40.6651 32.4897 40.7759 32.2866C40.8867 32.0835 40.942 31.8504 40.942 31.5873C40.942 31.2919 40.8913 31.0357 40.7897 30.8188C40.6928 30.6019 40.5359 30.4357 40.3189 30.3203C40.102 30.2003 39.8158 30.1403 39.4604 30.1403H37.4595L37.4733 28.714H39.9658L40.4435 29.2748C41.0574 29.2656 41.5513 29.3741 41.9252 29.6002C42.3037 29.8218 42.5783 30.1103 42.7491 30.4657C42.9245 30.8211 43.0122 31.2019 43.0122 31.6081C43.0122 32.2543 42.8714 32.7989 42.5899 33.2421C42.3083 33.6805 41.8952 34.0106 41.3505 34.2321C40.8105 34.4537 40.1504 34.5645 39.3704 34.5645ZM48.7706 34.7029C48.189 34.7029 47.6674 34.6106 47.2059 34.426C46.7443 34.2367 46.352 33.9759 46.0289 33.6436C45.7104 33.3113 45.4657 32.9259 45.295 32.4874C45.1242 32.0443 45.0388 31.5735 45.0388 31.075V30.798C45.0388 30.2303 45.1196 29.711 45.2811 29.2402C45.4427 28.7694 45.6735 28.3609 45.9735 28.0147C46.2781 27.6686 46.6474 27.4032 47.0813 27.2185C47.5151 27.0293 48.0044 26.9347 48.549 26.9347C49.0799 26.9347 49.5507 27.0224 49.9615 27.1978C50.3723 27.3732 50.7161 27.6224 50.9931 27.9455C51.2746 28.2686 51.487 28.6563 51.63 29.1087C51.7731 29.5564 51.8447 30.0549 51.8447 30.6042V31.435H45.8904V30.1057H49.8853V29.9534C49.8853 29.6764 49.8345 29.4295 49.733 29.2125C49.636 28.991 49.4883 28.8156 49.2899 28.6863C49.0914 28.5571 48.8375 28.4925 48.5283 28.4925C48.2652 28.4925 48.039 28.5502 47.8498 28.6656C47.6605 28.781 47.5059 28.9425 47.3859 29.1502C47.2705 29.3579 47.1828 29.6026 47.1228 29.8841C47.0674 30.1611 47.0397 30.4657 47.0397 30.798V31.075C47.0397 31.375 47.0813 31.6519 47.1643 31.9058C47.252 32.1597 47.3743 32.3789 47.5313 32.5635C47.6928 32.7482 47.8867 32.8913 48.1129 32.9928C48.3436 33.0943 48.6044 33.1451 48.8952 33.1451C49.2553 33.1451 49.5899 33.0759 49.8991 32.9374C50.213 32.7943 50.483 32.5797 50.7092 32.2935L51.6785 33.3459C51.5216 33.5721 51.3069 33.789 51.0346 33.9967C50.7669 34.2044 50.4438 34.3752 50.0653 34.5091C49.6868 34.6383 49.2553 34.7029 48.7706 34.7029ZM57.9077 32.4943C57.9077 32.3512 57.8662 32.222 57.7831 32.1066C57.7 31.9912 57.5454 31.885 57.3192 31.7881C57.0977 31.6866 56.7769 31.5942 56.3568 31.5112C55.9784 31.4281 55.6252 31.3242 55.2975 31.1996C54.9744 31.0704 54.6929 30.9157 54.4529 30.7357C54.2175 30.5557 54.0328 30.3434 53.899 30.0987C53.7651 29.8495 53.6982 29.5656 53.6982 29.2471C53.6982 28.9333 53.7651 28.6379 53.899 28.3609C54.0374 28.084 54.2336 27.8394 54.4875 27.627C54.746 27.4101 55.0598 27.2416 55.4291 27.1216C55.803 26.997 56.223 26.9347 56.6892 26.9347C57.34 26.9347 57.8985 27.0385 58.3647 27.2462C58.8355 27.4539 59.1955 27.7401 59.4448 28.1048C59.6986 28.4648 59.8256 28.8756 59.8256 29.3372H57.8316C57.8316 29.1433 57.79 28.9702 57.7069 28.8179C57.6285 28.661 57.5038 28.5386 57.3331 28.4509C57.1669 28.3586 56.95 28.3125 56.6822 28.3125C56.4607 28.3125 56.2691 28.3517 56.1076 28.4302C55.946 28.504 55.8214 28.6056 55.7337 28.7348C55.6506 28.8594 55.6091 28.9979 55.6091 29.1502C55.6091 29.2656 55.6322 29.3695 55.6783 29.4618C55.7291 29.5495 55.8099 29.6303 55.9207 29.7041C56.0314 29.778 56.1745 29.8472 56.3499 29.9118C56.5299 29.9718 56.7515 30.0272 57.0146 30.078C57.5546 30.1888 58.037 30.3341 58.4616 30.5142C58.8863 30.6896 59.2232 30.9296 59.4725 31.2342C59.7217 31.5342 59.8463 31.9289 59.8463 32.4181C59.8463 32.7505 59.7725 33.0551 59.6248 33.3321C59.4771 33.609 59.2647 33.8513 58.9878 34.059C58.7109 34.2621 58.3785 34.4214 57.9908 34.5368C57.6077 34.6475 57.1761 34.7029 56.6961 34.7029C55.9991 34.7029 55.4083 34.5783 54.9237 34.3291C54.4436 34.0798 54.079 33.7636 53.8297 33.3805C53.5851 32.9928 53.4628 32.5958 53.4628 32.1897H55.3529C55.3622 32.462 55.4314 32.6812 55.5606 32.8474C55.6945 33.0136 55.863 33.1336 56.0661 33.2074C56.2738 33.2813 56.4976 33.3182 56.7376 33.3182C56.9961 33.3182 57.2107 33.2836 57.3815 33.2144C57.5523 33.1405 57.6816 33.0436 57.7693 32.9236C57.8616 32.7989 57.9077 32.6559 57.9077 32.4943ZM65.6878 27.0731V28.4856H61.326V27.0731H65.6878ZM62.406 25.2245H64.4V32.3074C64.4 32.5243 64.4277 32.6905 64.4831 32.8059C64.5431 32.9213 64.6308 33.002 64.7462 33.0482C64.8616 33.0897 65.007 33.1105 65.1824 33.1105C65.307 33.1105 65.4178 33.1059 65.5147 33.0967C65.6163 33.0828 65.7017 33.069 65.7709 33.0551L65.7778 34.5229C65.607 34.5783 65.4224 34.6221 65.2239 34.6545C65.0255 34.6868 64.8062 34.7029 64.5662 34.7029C64.1277 34.7029 63.7446 34.6314 63.4169 34.4883C63.0938 34.3406 62.8445 34.1052 62.6691 33.7821C62.4937 33.459 62.406 33.0343 62.406 32.5082V25.2245ZM69.6946 28.5132V37.4447H67.7006V27.0731H69.5492L69.6946 28.5132ZM74.4372 30.7357V30.8811C74.4372 31.4258 74.3726 31.9312 74.2434 32.3974C74.1187 32.8636 73.9341 33.2697 73.6895 33.6159C73.4448 33.9575 73.1402 34.2252 72.7756 34.4191C72.4155 34.6083 72.0001 34.7029 71.5293 34.7029C71.0724 34.7029 70.6754 34.6106 70.3385 34.426C70.0015 34.2414 69.7176 33.9829 69.4869 33.6505C69.2607 33.3136 69.0784 32.9236 68.9399 32.4805C68.8014 32.0373 68.6953 31.5619 68.6214 31.0542V30.6734C68.6953 30.1287 68.8014 29.6303 68.9399 29.1779C69.0784 28.721 69.2607 28.3263 69.4869 27.994C69.7176 27.657 69.9992 27.3962 70.3315 27.2116C70.6685 27.027 71.0631 26.9347 71.5155 26.9347C71.9909 26.9347 72.4086 27.0247 72.7686 27.2047C73.1333 27.3847 73.4379 27.6432 73.6825 27.9801C73.9318 28.3171 74.1187 28.7186 74.2434 29.1848C74.3726 29.651 74.4372 30.168 74.4372 30.7357ZM72.4363 30.8811V30.7357C72.4363 30.4172 72.4086 30.1241 72.3532 29.8564C72.3024 29.5841 72.2194 29.3464 72.104 29.1433C71.9932 28.9402 71.8455 28.7833 71.6609 28.6725C71.4808 28.5571 71.2616 28.4994 71.0031 28.4994C70.7308 28.4994 70.4977 28.5432 70.3038 28.6309C70.1146 28.7186 69.96 28.8456 69.84 29.0117C69.72 29.1779 69.6299 29.3764 69.5699 29.6072C69.5099 29.838 69.473 30.0987 69.4592 30.3895V31.3519C69.4822 31.6935 69.5469 32.0004 69.653 32.2727C69.7592 32.5405 69.923 32.7528 70.1446 32.9097C70.3662 33.0667 70.6569 33.1451 71.017 33.1451C71.2801 33.1451 71.5016 33.0874 71.6816 32.972C71.8616 32.852 72.007 32.6882 72.1178 32.4805C72.2332 32.2727 72.314 32.0327 72.3601 31.7604C72.4109 31.4881 72.4363 31.195 72.4363 30.8811ZM78.5478 28.7071V34.5645H76.5538V27.0731H78.4301L78.5478 28.7071ZM80.8049 27.0247L80.7703 28.8733C80.6734 28.8594 80.5557 28.8479 80.4172 28.8387C80.2833 28.8248 80.161 28.8179 80.0502 28.8179C79.7687 28.8179 79.524 28.8548 79.3163 28.9287C79.1132 28.9979 78.9425 29.1018 78.804 29.2402C78.6701 29.3787 78.5686 29.5472 78.4994 29.7456C78.4347 29.9441 78.3978 30.1703 78.3886 30.4242L77.987 30.2995C77.987 29.8149 78.0355 29.3695 78.1324 28.9633C78.2293 28.5525 78.3701 28.1948 78.5547 27.8901C78.744 27.5855 78.9748 27.3501 79.2471 27.1839C79.5194 27.0178 79.831 26.9347 80.1818 26.9347C80.2926 26.9347 80.4056 26.9439 80.521 26.9624C80.6364 26.9762 80.7311 26.997 80.8049 27.0247ZM84.7286 27.0731V34.5645H82.7277V27.0731H84.7286ZM82.603 25.1207C82.603 24.8299 82.7046 24.5899 82.9077 24.4006C83.1108 24.2114 83.3831 24.1168 83.7247 24.1168C84.0616 24.1168 84.3316 24.2114 84.5347 24.4006C84.7424 24.5899 84.8463 24.8299 84.8463 25.1207C84.8463 25.4115 84.7424 25.6515 84.5347 25.8407C84.3316 26.03 84.0616 26.1246 83.7247 26.1246C83.3831 26.1246 83.1108 26.03 82.9077 25.8407C82.7046 25.6515 82.603 25.4115 82.603 25.1207ZM89.2061 28.6725V34.5645H87.2121V27.0731H89.0815L89.2061 28.6725ZM88.9153 30.5557H88.3753C88.3753 30.0018 88.4468 29.5033 88.5899 29.0602C88.733 28.6125 88.9338 28.2317 89.1923 27.9178C89.4508 27.5993 89.7577 27.357 90.1131 27.1908C90.4731 27.0201 90.8747 26.9347 91.3178 26.9347C91.6686 26.9347 91.9894 26.9854 92.2802 27.087C92.571 27.1885 92.8202 27.3501 93.0279 27.5716C93.2403 27.7932 93.4018 28.0863 93.5126 28.4509C93.628 28.8156 93.6857 29.261 93.6857 29.7872V34.5645H91.6778V29.7803C91.6778 29.4479 91.6317 29.1895 91.5394 29.0048C91.4471 28.8202 91.3109 28.691 91.1309 28.6171C90.9555 28.5386 90.7385 28.4994 90.4801 28.4994C90.2123 28.4994 89.9793 28.5525 89.7808 28.6586C89.5869 28.7648 89.4254 28.9125 89.2961 29.1018C89.1715 29.2864 89.0769 29.5033 89.0123 29.7526C88.9476 30.0018 88.9153 30.2695 88.9153 30.5557ZM99.7487 27.0731V28.4856H95.3869V27.0731H99.7487ZM96.467 25.2245H98.4609V32.3074C98.4609 32.5243 98.4886 32.6905 98.544 32.8059C98.604 32.9213 98.6917 33.002 98.8071 33.0482C98.9225 33.0897 99.0679 33.1105 99.2433 33.1105C99.3679 33.1105 99.4787 33.1059 99.5756 33.0967C99.6772 33.0828 99.7626 33.069 99.8318 33.0551L99.8387 34.5229C99.668 34.5783 99.4833 34.6221 99.2848 34.6545C99.0864 34.6868 98.8671 34.7029 98.6271 34.7029C98.1886 34.7029 97.8055 34.6314 97.4778 34.4883C97.1547 34.3406 96.9054 34.1052 96.73 33.7821C96.5547 33.459 96.467 33.0343 96.467 32.5082V25.2245Z" fill="white"/>
<path fill-rule="evenodd" clip-rule="evenodd" d="M64.2525 31.4121L62.2973 33.3674C62.2714 33.1954 62.2585 33.0085 62.2585 32.8067V28.7841H61.1785V27.3716H62.2585V25.523H63.2502L64.2525 26.5254V27.3716H65.0988L65.5403 27.8131V28.7841H64.2525V31.4121ZM37.4435 30.4388V33.2428H39.2229C39.5875 33.2428 39.8852 33.1851 40.116 33.0697C40.3468 32.9497 40.5176 32.7882 40.6284 32.5851C40.7392 32.382 40.7945 32.1489 40.7945 31.8858C40.7945 31.5904 40.7438 31.3342 40.6422 31.1173C40.5453 30.9004 40.3884 30.7342 40.1714 30.6188C39.9545 30.4988 39.6683 30.4388 39.3129 30.4388H37.4435ZM41.2046 29.6661C41.2995 29.6281 41.389 29.5856 41.473 29.5387C41.8746 29.3172 42.1677 29.031 42.3523 28.6802C42.5416 28.3294 42.6362 27.9463 42.6362 27.5309C42.6362 27.0601 42.5508 26.6539 42.38 26.3123C42.2093 25.9662 41.9623 25.68 41.6392 25.4538C41.3161 25.2276 40.9215 25.0592 40.4553 24.9484C39.9937 24.8376 39.4698 24.7822 38.8836 24.7822H35.3665V34.863H36.1557H37.4435H39.2229C40.0029 34.863 40.663 34.7522 41.203 34.5306C41.7477 34.3091 42.1608 33.979 42.4423 33.5406C42.7239 33.0974 42.8647 32.5528 42.8647 31.9066C42.8647 31.5004 42.777 31.1196 42.6016 30.7642C42.4308 30.4088 42.1562 30.1203 41.7777 29.8987C41.6106 29.7977 41.4196 29.7201 41.2046 29.6661ZM38.8836 29.0125C39.2667 29.0125 39.5806 28.9641 39.8252 28.8671C40.0699 28.7656 40.2522 28.6202 40.3722 28.431C40.4968 28.2371 40.5591 28.0017 40.5591 27.7247C40.5591 27.4109 40.4991 27.157 40.3791 26.9632C40.2637 26.7693 40.0814 26.6285 39.8322 26.5408C39.5875 26.4531 39.2714 26.4093 38.8836 26.4093H37.4435V29.0125H38.8836ZM47.0584 34.7245C47.5199 34.9091 48.0415 35.0014 48.6231 35.0014C49.1078 35.0014 49.5393 34.9368 49.9178 34.8076C50.2963 34.6737 50.6194 34.5029 50.8871 34.2952C51.1594 34.0875 51.3741 33.8706 51.531 33.6444L50.5617 32.592C50.3355 32.8782 50.0655 33.0928 49.7516 33.2359C49.4424 33.3744 49.1078 33.4436 48.7477 33.4436C48.4569 33.4436 48.1961 33.3928 47.9654 33.2913C47.7392 33.1898 47.5453 33.0467 47.3838 32.862C47.2268 32.6774 47.1045 32.4582 47.0168 32.2043C46.9681 32.0553 46.9336 31.8984 46.9135 31.7335H51.6972V30.9027C51.6972 30.3534 51.6256 29.8549 51.4825 29.4072C51.3395 28.9548 51.1271 28.5671 50.8456 28.244C50.5686 27.9209 50.2248 27.6717 49.814 27.4963C49.4032 27.3209 48.9324 27.2332 48.4015 27.2332C47.8569 27.2332 47.3676 27.3278 46.9337 27.517C46.4999 27.7017 46.1306 27.9671 45.826 28.3133C45.526 28.6594 45.2952 29.0679 45.1336 29.5387C44.9721 30.0095 44.8913 30.5288 44.8913 31.0965V31.3735C44.8913 31.872 44.9767 32.3428 45.1475 32.7859C45.3182 33.2244 45.5629 33.6098 45.8814 33.9421C46.2045 34.2744 46.5968 34.5352 47.0584 34.7245ZM46.9377 30.4042C46.9484 30.3284 46.9609 30.2546 46.9753 30.1826C47.0353 29.9011 47.123 29.6564 47.2384 29.4487C47.3584 29.241 47.513 29.0795 47.7023 28.9641C47.8915 28.8487 48.1177 28.791 48.3808 28.791C48.69 28.791 48.9439 28.8556 49.1424 28.9848C49.3408 29.1141 49.4885 29.2895 49.5855 29.511C49.687 29.728 49.7378 29.9749 49.7378 30.2519V30.4042H46.9377ZM57.6356 32.4051C57.7187 32.5205 57.7602 32.6497 57.7602 32.7928C57.7602 32.9544 57.7141 33.0974 57.6217 33.2221C57.534 33.3421 57.4048 33.439 57.234 33.5129C57.0632 33.5821 56.8486 33.6167 56.5901 33.6167C56.3501 33.6167 56.1263 33.5798 55.9185 33.5059C55.7155 33.4321 55.547 33.3121 55.4131 33.1459C55.2839 32.9797 55.2147 32.7605 55.2054 32.4882H53.3153C53.3153 32.8944 53.4376 33.2913 53.6822 33.679C53.9315 34.0621 54.2961 34.3783 54.7762 34.6276C55.2608 34.8768 55.8516 35.0014 56.5486 35.0014C57.0286 35.0014 57.4602 34.946 57.8433 34.8353C58.231 34.7199 58.5634 34.5606 58.8403 34.3575C59.1172 34.1498 59.3296 33.9075 59.4773 33.6306C59.625 33.3536 59.6988 33.049 59.6988 32.7166C59.6988 32.2274 59.5742 31.8327 59.3249 31.5327C59.0757 31.2281 58.7388 30.9881 58.3141 30.8127C57.8895 30.6326 57.4071 30.4873 56.8671 30.3765C56.604 30.3257 56.3824 30.2703 56.2024 30.2103C56.027 30.1457 55.8839 30.0765 55.7732 30.0026C55.6624 29.9288 55.5816 29.848 55.5308 29.7603C55.4847 29.668 55.4616 29.5641 55.4616 29.4487C55.4616 29.2964 55.5031 29.1579 55.5862 29.0333C55.6739 28.9041 55.7985 28.8025 55.9601 28.7287C56.1216 28.6502 56.3132 28.611 56.5347 28.611C56.8025 28.611 57.0194 28.6571 57.1856 28.7494C57.3563 28.8371 57.481 28.9595 57.5594 29.1164C57.6425 29.2687 57.6841 29.4418 57.6841 29.6357H59.6781C59.6781 29.1741 59.5511 28.7633 59.2973 28.4033C59.048 28.0386 58.688 27.7524 58.2172 27.5447C57.751 27.337 57.1925 27.2332 56.5417 27.2332C56.0755 27.2332 55.6555 27.2955 55.2816 27.4201C54.9123 27.5401 54.5985 27.7086 54.34 27.9255C54.0861 28.1379 53.8899 28.3825 53.7515 28.6594C53.6176 28.9364 53.5507 29.2318 53.5507 29.5456C53.5507 29.8641 53.6176 30.148 53.7515 30.3972C53.8853 30.6419 54.07 30.8542 54.3054 31.0342C54.5454 31.2142 54.8269 31.3689 55.15 31.4981C55.4777 31.6227 55.8309 31.7266 56.2093 31.8097C56.6294 31.8927 56.9502 31.9851 57.1717 32.0866C57.3979 32.1835 57.5525 32.2897 57.6356 32.4051Z" fill="white"/>
<path d="M69.3807 43.6866C69.3807 43.572 69.363 43.4691 69.3278 43.378C69.2954 43.2839 69.2337 43.1987 69.1426 43.1223C69.0515 43.0429 68.9236 42.965 68.759 42.8886C68.5944 42.8122 68.3813 42.7328 68.1197 42.6505C67.8287 42.5564 67.5524 42.4506 67.2908 42.333C67.0321 42.2155 66.8029 42.0788 66.603 41.923C66.406 41.7643 66.2503 41.5806 66.1356 41.3719C66.0239 41.1632 65.9681 40.9207 65.9681 40.6444C65.9681 40.3769 66.0269 40.1344 66.1444 39.9169C66.262 39.6964 66.4266 39.5083 66.6383 39.3525C66.8499 39.1938 67.0997 39.0718 67.3878 38.9866C67.6788 38.9013 67.9977 38.8587 68.3446 38.8587C68.8178 38.8587 69.2308 38.944 69.5835 39.1144C69.9362 39.2849 70.2096 39.5186 70.4036 39.8155C70.6005 40.1124 70.699 40.4519 70.699 40.834H69.3851C69.3851 40.6458 69.3454 40.4812 69.266 40.3402C69.1896 40.1961 69.072 40.083 68.9133 40.0007C68.7575 39.9184 68.5606 39.8772 68.3225 39.8772C68.0932 39.8772 67.9022 39.9125 67.7493 39.983C67.5965 40.0506 67.4819 40.1432 67.4054 40.2608C67.329 40.3754 67.2908 40.5048 67.2908 40.6488C67.2908 40.7575 67.3172 40.856 67.3702 40.9442C67.426 41.0324 67.5083 41.1147 67.6171 41.1911C67.7258 41.2675 67.8596 41.3395 68.0183 41.4071C68.177 41.4747 68.3607 41.5409 68.5694 41.6055C68.9192 41.7114 69.2264 41.8304 69.4909 41.9627C69.7584 42.095 69.9818 42.2434 70.1611 42.408C70.3404 42.5726 70.4756 42.7592 70.5667 42.9679C70.6578 43.1766 70.7034 43.4133 70.7034 43.6778C70.7034 43.957 70.649 44.2069 70.5403 44.4273C70.4315 44.6478 70.2742 44.8344 70.0685 44.9873C69.8627 45.1401 69.6173 45.2562 69.3322 45.3356C69.0471 45.415 68.7281 45.4546 68.3754 45.4546C68.058 45.4546 67.7449 45.4135 67.4363 45.3312C67.1277 45.2459 66.847 45.1181 66.5942 44.9476C66.3443 44.7771 66.1444 44.5596 65.9945 44.2951C65.8446 44.0305 65.7697 43.7175 65.7697 43.3559H67.0968C67.0968 43.5558 67.1277 43.7248 67.1894 43.863C67.2511 44.0011 67.3378 44.1128 67.4495 44.1981C67.5642 44.2833 67.6994 44.345 67.8552 44.3832C68.0139 44.4215 68.1873 44.4406 68.3754 44.4406C68.6047 44.4406 68.7928 44.4082 68.9398 44.3436C69.0897 44.2789 69.1999 44.1892 69.2705 44.0746C69.3439 43.96 69.3807 43.8306 69.3807 43.6866ZM74.5965 45.4546C74.2261 45.4546 73.894 45.3958 73.6 45.2783C73.3061 45.1578 73.0562 44.9917 72.8505 44.7801C72.6477 44.5684 72.4919 44.323 72.3831 44.0437C72.2744 43.7616 72.22 43.4618 72.22 43.1443V42.9679C72.22 42.6064 72.2714 42.2757 72.3743 41.9759C72.4772 41.6761 72.6242 41.416 72.8152 41.1955C73.0092 40.9751 73.2444 40.806 73.5207 40.6885C73.797 40.568 74.1085 40.5077 74.4554 40.5077C74.7934 40.5077 75.0932 40.5635 75.3548 40.6752C75.6164 40.7869 75.8354 40.9457 76.0118 41.1514C76.1911 41.3572 76.3263 41.6041 76.4174 41.8921C76.5085 42.1773 76.5541 42.4947 76.5541 42.8445V43.3736H72.7623V42.527H75.3063V42.43C75.3063 42.2537 75.274 42.0964 75.2093 41.9583C75.1476 41.8172 75.0535 41.7055 74.9271 41.6232C74.8007 41.5409 74.6391 41.4997 74.4421 41.4997C74.2746 41.4997 74.1306 41.5365 74.0101 41.61C73.8895 41.6834 73.7911 41.7863 73.7147 41.9186C73.6412 42.0509 73.5853 42.2066 73.5471 42.3859C73.5118 42.5623 73.4942 42.7563 73.4942 42.9679V43.1443C73.4942 43.3354 73.5207 43.5117 73.5736 43.6734C73.6294 43.8351 73.7073 43.9747 73.8072 44.0922C73.9101 44.2098 74.0336 44.3009 74.1776 44.3656C74.3246 44.4303 74.4906 44.4626 74.6758 44.4626C74.9051 44.4626 75.1182 44.4185 75.3151 44.3303C75.515 44.2392 75.687 44.1025 75.831 43.9203L76.4483 44.5905C76.3483 44.7345 76.2116 44.8726 76.0382 45.0049C75.8677 45.1372 75.662 45.2459 75.4209 45.3312C75.1799 45.4135 74.9051 45.4546 74.5965 45.4546ZM79.4242 41.6364V45.3665H78.1544V40.5959H79.3493L79.4242 41.6364ZM80.8616 40.565L80.8395 41.7422C80.7778 41.7334 80.7029 41.7261 80.6147 41.7202C80.5294 41.7114 80.4516 41.707 80.381 41.707C80.2017 41.707 80.0459 41.7305 79.9136 41.7775C79.7843 41.8216 79.6756 41.8877 79.5874 41.9759C79.5021 42.0641 79.4375 42.1714 79.3934 42.2978C79.3522 42.4242 79.3287 42.5682 79.3228 42.7299L79.0671 42.6505C79.0671 42.3419 79.098 42.0582 79.1597 41.7995C79.2214 41.5379 79.3111 41.3101 79.4287 41.1161C79.5492 40.9221 79.6961 40.7722 79.8696 40.6664C80.043 40.5606 80.2414 40.5077 80.4648 40.5077C80.5353 40.5077 80.6073 40.5136 80.6808 40.5253C80.7543 40.5342 80.8146 40.5474 80.8616 40.565ZM84.0404 44.4406L85.0986 40.5959H86.4257L84.8164 45.3665H84.0139L84.0404 44.4406ZM83.3129 40.5959L84.3755 44.445L84.3975 45.3665H83.5907L81.9814 40.5959H83.3129ZM89.2121 40.5959V45.3665H87.9379V40.5959H89.2121ZM87.8585 39.3525C87.8585 39.1674 87.9232 39.0145 88.0525 38.894C88.1818 38.7735 88.3553 38.7132 88.5728 38.7132C88.7874 38.7132 88.9593 38.7735 89.0886 38.894C89.2209 39.0145 89.287 39.1674 89.287 39.3525C89.287 39.5377 89.2209 39.6906 89.0886 39.8111C88.9593 39.9316 88.7874 39.9918 88.5728 39.9918C88.3553 39.9918 88.1818 39.9316 88.0525 39.8111C87.9232 39.6906 87.8585 39.5377 87.8585 39.3525ZM93.1096 44.4626C93.2654 44.4626 93.4035 44.4332 93.524 44.3744C93.6445 44.3127 93.7386 44.2275 93.8062 44.1187C93.8767 44.007 93.9135 43.8762 93.9164 43.7263H95.1113C95.1083 44.0614 95.0187 44.3597 94.8423 44.6213C94.666 44.88 94.4293 45.0843 94.1325 45.2342C93.8356 45.3812 93.5034 45.4546 93.136 45.4546C92.7657 45.4546 92.4423 45.3929 92.166 45.2695C91.8927 45.146 91.6649 44.9755 91.4826 44.758C91.3004 44.5376 91.1637 44.2818 91.0726 43.9908C90.9815 43.6969 90.9359 43.3824 90.9359 43.0473V42.9194C90.9359 42.5814 90.9815 42.2669 91.0726 41.9759C91.1637 41.682 91.3004 41.4262 91.4826 41.2087C91.6649 40.9883 91.8927 40.8163 92.166 40.6929C92.4394 40.5694 92.7598 40.5077 93.1272 40.5077C93.5181 40.5077 93.8606 40.5827 94.1545 40.7326C94.4514 40.8825 94.6836 41.097 94.8511 41.3763C95.0216 41.6526 95.1083 41.9803 95.1113 42.3595H93.9164C93.9135 42.2008 93.8797 42.0567 93.815 41.9274C93.7533 41.7981 93.6622 41.6952 93.5417 41.6188C93.4241 41.5394 93.2786 41.4997 93.1052 41.4997C92.92 41.4997 92.7686 41.5394 92.651 41.6188C92.5335 41.6952 92.4423 41.801 92.3777 41.9362C92.313 42.0685 92.2674 42.2199 92.241 42.3904C92.2175 42.5579 92.2057 42.7343 92.2057 42.9194V43.0473C92.2057 43.2325 92.2175 43.4103 92.241 43.5808C92.2645 43.7513 92.3086 43.9027 92.3733 44.0349C92.4409 44.1672 92.5335 44.2715 92.651 44.348C92.7686 44.4244 92.9215 44.4626 93.1096 44.4626ZM98.9206 45.4546C98.5502 45.4546 98.2181 45.3958 97.9241 45.2783C97.6302 45.1578 97.3804 44.9917 97.1746 44.7801C96.9718 44.5684 96.816 44.323 96.7072 44.0437C96.5985 43.7616 96.5441 43.4618 96.5441 43.1443V42.9679C96.5441 42.6064 96.5955 42.2757 96.6984 41.9759C96.8013 41.6761 96.9483 41.416 97.1393 41.1955C97.3333 40.9751 97.5685 40.806 97.8448 40.6885C98.1211 40.568 98.4326 40.5077 98.7795 40.5077C99.1175 40.5077 99.4173 40.5635 99.6789 40.6752C99.9405 40.7869 100.16 40.9457 100.336 41.1514C100.515 41.3572 100.65 41.6041 100.742 41.8921C100.833 42.1773 100.878 42.4947 100.878 42.8445V43.3736H97.0864V42.527H99.6304V42.43C99.6304 42.2537 99.5981 42.0964 99.5334 41.9583C99.4717 41.8172 99.3776 41.7055 99.2513 41.6232C99.1249 41.5409 98.9632 41.4997 98.7663 41.4997C98.5987 41.4997 98.4547 41.5365 98.3342 41.61C98.2137 41.6834 98.1152 41.7863 98.0388 41.9186C97.9653 42.0509 97.9094 42.2066 97.8712 42.3859C97.836 42.5623 97.8183 42.7563 97.8183 42.9679V43.1443C97.8183 43.3354 97.8448 43.5117 97.8977 43.6734C97.9535 43.8351 98.0314 43.9747 98.1314 44.0922C98.2342 44.2098 98.3577 44.3009 98.5017 44.3656C98.6487 44.4303 98.8148 44.4626 98.9999 44.4626C99.2292 44.4626 99.4423 44.4185 99.6392 44.3303C99.8391 44.2392 100.011 44.1025 100.155 43.9203L100.772 44.5905C100.672 44.7345 100.536 44.8726 100.362 45.0049C100.192 45.1372 99.9861 45.2459 99.7451 45.3312C99.504 45.4135 99.2292 45.4546 98.9206 45.4546Z" fill="white"/>
</svg>
